<svg width="178" height="36" viewBox="0 0 178 36" fill="none" xmlns="http://www.w3.org/2000/svg">
<path d="M4.70422 7.22129V8.46045H10.3685V12.3168H4.82155V28.9172H0V7.14652C0 4.95663 0.640029 3.22608 1.93075 1.93351C3.21081 0.640943 5.0349 0 7.40301 0C9.22709 0 10.6672 0.373884 11.7232 1.12165L10.3685 4.75366C9.60044 4.1875 8.72573 3.89907 7.74435 3.89907C5.7176 3.89907 4.70422 5.01004 4.70422 7.22129Z" fill="white"/>
<path d="M32.8303 8.03964V28.6397H28.3932V25.982C27.6193 26.964 26.67 27.6898 25.5453 28.1808C24.4102 28.6718 23.1616 28.9173 21.7996 28.9173C19.8597 28.9173 18.1261 28.4796 16.5989 27.6044C15.0718 26.7292 13.8748 25.491 13.0184 23.9007C12.1619 22.3103 11.7285 20.4531 11.7285 18.3504C11.7285 16.237 12.1619 14.4011 13.0184 12.8107C13.8748 11.2311 15.0718 10.0036 16.5989 9.12835C18.1261 8.25311 19.8597 7.81549 21.7996 7.81549C23.0894 7.81549 24.2761 8.05031 25.3595 8.50928C26.443 8.96824 27.382 9.65136 28.1765 10.5586V8.03964H32.8303ZM26.5565 23.0041C27.6709 21.8193 28.2385 20.2609 28.2385 18.3397C28.2385 16.4184 27.6812 14.8601 26.5565 13.6753C25.4421 12.4905 24.0181 11.9035 22.3052 11.9035C20.5923 11.9035 19.1786 12.4905 18.0745 13.6753C16.9704 14.8601 16.4132 16.4184 16.4132 18.3397C16.4132 20.2609 16.9704 21.8193 18.0745 23.0041C19.1786 24.1888 20.5923 24.7759 22.3052 24.7759C24.0181 24.7759 25.4421 24.1888 26.5565 23.0041Z" fill="white"/>
<path d="M55.29 9.10871C56.8142 9.98434 58.0089 11.223 58.8842 12.8141C59.7493 14.4052 60.1818 16.2526 60.1818 18.3349C60.1818 20.4172 59.7493 22.2646 58.8842 23.877C58.0191 25.4894 56.8142 26.7281 55.29 27.6038C53.7658 28.4794 52.0357 28.9172 50.0995 28.9172C48.7298 28.9172 47.4837 28.6716 46.3612 28.1804C45.2283 27.6892 44.2809 26.9631 43.5085 25.9807V28.6396H39.0801V0H43.735V10.5396C44.528 9.64263 45.4652 8.95921 46.5465 8.48936C47.6279 8.03019 48.8122 7.79526 50.0995 7.79526C52.0357 7.79526 53.7658 8.23308 55.29 9.10871ZM53.807 23.0014C54.909 21.8161 55.4651 20.257 55.4651 18.3349C55.4651 16.4128 54.909 14.8537 53.807 13.6684C52.7051 12.4831 51.2942 11.8958 49.5846 11.8958C48.4724 11.8958 47.4631 12.1627 46.5671 12.686C45.6712 13.2092 44.9709 13.9674 44.4456 14.9391C43.9204 15.9216 43.6629 17.0535 43.6629 18.3349C43.6629 19.627 43.9204 20.7589 44.4456 21.7306C44.9709 22.713 45.6712 23.4605 46.5671 23.9838C47.4631 24.507 48.4621 24.774 49.5846 24.774C51.2942 24.7847 52.6948 24.1867 53.807 23.0014Z" fill="white"/>
<path d="M76.5982 7.81549V12.4639C76.1994 12.3883 75.8216 12.345 75.4962 12.345C73.649 12.345 72.2112 12.8963 71.1722 14.0098C70.1331 15.1125 69.6189 16.7124 69.6189 18.7988V28.9173H64.875V8.05332H69.388V11.1018C70.7628 8.91814 73.1663 7.81549 76.5982 7.81549Z" fill="white"/>
<path d="M80.498 8.59705H85.1873V28.9173H80.498V8.59705Z" fill="white"/>
<path d="M82.8427 6.25239C84.1376 6.25239 85.1873 5.20266 85.1873 3.90775C85.1873 2.61284 84.1376 1.56311 82.8427 1.56311C81.5478 1.56311 80.498 2.61284 80.498 3.90775C80.498 5.20266 81.5478 6.25239 82.8427 6.25239Z" fill="white"/>
<path d="M89.0996 18.3613L96.9659 8.59705H102.845L94.9577 18.3613L103.167 28.9173H97.455L89.0996 18.3613Z" fill="white"/>
<path d="M177.412 19.153L169.546 28.9172L163.667 28.9172L171.554 19.153L163.344 8.59702L169.057 8.59702L177.412 19.153Z" fill="white"/>
<path d="M118.039 27.2239H121.139V24.2239H123.739V21.4489H121.139V10.4239H116.039L107.539 21.4489V24.2239H118.039V27.2239ZM110.939 21.4489L117.989 12.4489H118.039V21.4489H110.939ZM124.963 18.8239C124.963 24.0489 128.438 27.5989 133.238 27.5989C138.038 27.5989 141.513 24.0489 141.513 18.8239C141.513 13.5989 138.038 10.0489 133.238 10.0489C128.438 10.0489 124.963 13.5989 124.963 18.8239ZM138.413 18.8239C138.413 22.5989 136.363 24.8489 133.238 24.8489C130.113 24.8489 128.063 22.5989 128.063 18.8239C128.063 15.0489 130.113 12.7989 133.238 12.7989C136.363 12.7989 138.413 15.0489 138.413 18.8239ZM152.951 27.2239H156.051V24.2239H158.651V21.4489H156.051V10.4239H150.951L142.451 21.4489V24.2239H152.951V27.2239ZM145.851 21.4489L152.901 12.4489H152.951V21.4489H145.851Z" fill="#E8431E"/>
</svg>
